<svg xmlns="http://www.w3.org/2000/svg" viewBox="0 -768 7168 1024"><g fill="#635BFF" transform="scale(1,-1)"><path transform="translate(0,0)" d="M0 0Q0 53 37 90Q75 128 128 128H640V256H0V640H768Q768 586 730 549Q692 512 640 512H128V384H768V0Z"/><path transform="translate(896,0)" d="M320 0V512H128Q74 512 37 549Q0 587 0 640H768Q768 586 730 549Q692 512 640 512H448V0Z"/><path transform="translate(1792,0)" d="M128 0Q74 0 37 37Q0 75 0 128H768Q768 74 730 37Q692 0 640 0ZM0 256V640H128V256ZM640 256V640H768V256Z"/><path transform="translate(2688,0)" d="M0 0V384H128V128H576Q602 128 621 146Q640 165 640 192V512H128Q74 512 37 549Q0 587 0 640H768V128Q768 74 730 37Q692 0 640 0Z"/><path transform="translate(3584,0)" d="M128 0Q74 0 37 37Q0 75 0 128H768Q768 74 730 37Q692 0 640 0ZM128 256Q74 256 37 293Q0 331 0 384H768Q768 330 730 293Q692 256 640 256ZM128 512Q74 512 37 549Q0 587 0 640H768Q768 586 730 549Q692 512 640 512Z"/><path transform="translate(4480,0)" d="M128 0V512L0 640H192L640 192V640H768V0H640L256 384V0Z"/><path transform="translate(5376,0)" d="M320 0V512H128Q74 512 37 549Q0 587 0 640H768Q768 586 730 549Q692 512 640 512H448V0Z"/><path transform="translate(6272,0)" d="M0 0V128L192 320L128 384L0 512V640H128V576L384 320L128 64V0ZM640 0V64L384 320L640 576V640H768V512L640 384H639L576 320L768 128V0Z"/></g></svg>